<?xml version="1.0" encoding="UTF-8"?>
<svg version="1.1" xmlns="http://www.w3.org/2000/svg" width="225" height="225">
<path d="M0 0 C74.25 0 148.5 0 225 0 C225 74.25 225 148.5 225 225 C150.75 225 76.5 225 0 225 C0 150.75 0 76.5 0 0 Z " fill="#1B1B1B" transform="translate(0,0)"/>
<path d="M0 0 C13.08235006 -0.0926489 26.16462217 -0.1637393 39.24723339 -0.20724869 C45.3219225 -0.22813022 51.39638727 -0.25645878 57.47094727 -0.30175781 C63.33239766 -0.3451945 69.19363218 -0.36913284 75.05523109 -0.37950897 C77.29237581 -0.38690419 79.52950861 -0.40134515 81.76656151 -0.42292023 C84.89826437 -0.45192457 88.02907328 -0.45595715 91.16088867 -0.45410156 C92.55056099 -0.47567322 92.55056099 -0.47567322 93.9683075 -0.49768066 C98.1045821 -0.47113242 100.43357141 -0.32786963 104.07550049 1.7802124 C106.10516659 4.12130296 106.62676477 4.93966817 106.63110352 7.97070312 C106.64363663 8.73829956 106.65616974 9.505896 106.66908264 10.29675293 C106.65582443 11.11663696 106.64256622 11.936521 106.62890625 12.78125 C106.63131821 13.63174927 106.63373016 14.48224854 106.63621521 15.35852051 C106.63523716 17.15393748 106.62185331 18.94938475 106.59692383 20.74462891 C106.56261304 23.49095213 106.57626517 26.23405743 106.59570312 28.98046875 C106.58880448 30.72657618 106.57913193 32.47267531 106.56640625 34.21875 C106.57136612 35.03863403 106.57632599 35.85851807 106.58143616 36.70324707 C106.56559982 37.47084351 106.54976349 38.23843994 106.53344727 39.02929688 C106.5241494 40.03712219 106.5241494 40.03712219 106.5146637 41.06530762 C105.68774341 44.17381591 104.67437219 45.17111273 102 47 C98.60608905 47.58223297 95.25095842 47.50468186 91.81542969 47.45410156 C90.7809671 47.45468567 89.74650452 47.45526978 88.68069458 47.45587158 C85.26074696 47.45308442 81.8416704 47.42196137 78.421875 47.390625 C76.05105058 47.38316489 73.68022 47.37747087 71.30938721 47.37347412 C65.06867455 47.35819983 58.82833412 47.31890199 52.58776855 47.2746582 C46.22002193 47.23374453 39.85221517 47.21547142 33.484375 47.1953125 C20.98941977 47.15240994 8.49474083 47.08413646 -4 47 C-2.49730667 45.48577974 -0.99849772 43.99865973 0.59375 42.578125 C2.26894431 40.69818472 2.79293023 39.15740421 3.5 36.75 C4.39711919 33.78518899 5.39898994 31.12729712 6.8125 28.375 C8.32599921 24.07347594 7.89562932 22.10719686 6 18 C3.58944746 16.33700035 3.58944746 16.33700035 1 15 C-1.53806697 11.58673752 -2 10.36087656 -2 6 C-3.01513672 6.23589844 -3.01513672 6.23589844 -4.05078125 6.4765625 C-7.44462289 7.0789132 -10.74419726 7.22513605 -14.1875 7.375 C-20.51732546 7.75354839 -26.06897255 8.78109796 -32 11 C-32 9.35 -32 7.7 -32 6 C-27.79283031 5.32584879 -23.58409666 4.66200458 -19.375 4 C-18.18519531 3.80921875 -16.99539062 3.6184375 -15.76953125 3.421875 C-14.61582031 3.24140625 -13.46210937 3.0609375 -12.2734375 2.875 C-10.68668213 2.62363281 -10.68668213 2.62363281 -9.06787109 2.3671875 C-6.0130215 2.00155852 -3.07337438 1.93555178 0 2 C0 1.34 0 0.68 0 0 Z " fill="#F7F7F8" transform="translate(91,93)"/>
<path d="M0 0 C1.03898437 -0.00257812 2.07796875 -0.00515625 3.1484375 -0.0078125 C5.625 0.125 5.625 0.125 6.625 1.125 C6.76615161 3.79558851 6.66747107 6.44932238 6.625 9.125 C4.10452208 9.60609963 1.5836463 10.08492603 -0.9375 10.5625 C-1.64197266 10.69720703 -2.34644531 10.83191406 -3.07226562 10.97070312 C-10.58541904 12.39023902 -17.72330562 13.24271838 -25.375 13.125 C-25.375 16.095 -25.375 19.065 -25.375 22.125 C-24.64796875 21.83625 -23.9209375 21.5475 -23.171875 21.25 C-15.67538734 18.4820661 -9.33845856 17.61669413 -1.375 18.125 C-1.39820313 18.71667969 -1.42140625 19.30835937 -1.4453125 19.91796875 C-1.67001099 26.29315375 -1.67001099 26.29315375 0.625 32.125 C2.47225052 32.81659401 2.47225052 32.81659401 4.625 33.125 C6.31491979 34.0851817 7.98709288 35.07855934 9.625 36.125 C9.295 37.445 8.965 38.765 8.625 40.125 C6.645 40.62 6.645 40.62 4.625 41.125 C1.625 37.5 1.625 37.5 1.625 34.125 C0.305 34.125 -1.015 34.125 -2.375 34.125 C-1.88 38.085 -1.88 38.085 -1.375 42.125 C2.585 42.785 6.545 43.445 10.625 44.125 C9.625 50.125 9.625 50.125 8.375 51.875 C4.03922194 54.97198433 -0.60291252 55.56975896 -5.80078125 56.1953125 C-6.50720261 56.28126678 -7.21362396 56.36722107 -7.94145203 56.45578003 C-9.43119469 56.6354478 -10.92134718 56.8117459 -12.41186523 56.98486328 C-14.67090429 57.24806642 -16.92818925 57.52356621 -19.18554688 57.80078125 C-37.50540975 59.99055104 -37.50540975 59.99055104 -42.75 57.5625 C-46.00077459 54.54392359 -46.61520416 52.45583626 -47.375 48.125 C-47.39890954 46.45850484 -47.40358356 44.79142154 -47.375 43.125 C-44.14676021 42.61889097 -40.91727635 42.12120093 -37.6875 41.625 C-36.77548828 41.48191406 -35.86347656 41.33882812 -34.92382812 41.19140625 C-33.59448242 40.98837891 -33.59448242 40.98837891 -32.23828125 40.78125 C-31.42657471 40.65556641 -30.61486816 40.52988281 -29.77856445 40.40039062 C-27.28966595 40.11522277 -24.87793311 40.07825261 -22.375 40.125 C-22.045 41.775 -21.715 43.425 -21.375 45.125 C-19.395 45.455 -17.415 45.785 -15.375 46.125 C-15.045 41.505 -14.715 36.885 -14.375 32.125 C-16.355 31.795 -18.335 31.465 -20.375 31.125 C-20.82488281 31.57488281 -21.27476563 32.02476563 -21.73828125 32.48828125 C-24.41856918 35.16856918 -27.95041433 34.97396403 -31.5625 35.3125 C-32.29275391 35.39435547 -33.02300781 35.47621094 -33.77539062 35.56054688 C-38.66328325 36.07574548 -43.46158771 36.19733789 -48.375 36.125 C-50.75797872 16.78457447 -50.75797872 16.78457447 -50.375 7.125 C-46.31013309 5.2680354 -42.5600369 4.6153695 -38.1328125 4.08984375 C-37.10291702 3.96446983 -37.10291702 3.96446983 -36.05221558 3.83656311 C-33.86885872 3.57211619 -31.68453081 3.31704827 -29.5 3.0625 C-27.32290423 2.80226336 -25.14604472 2.54011692 -22.96920776 2.27772522 C-20.98911179 2.04010038 -19.00848497 1.80691144 -17.02783203 1.57397461 C-14.55173392 1.26963398 -12.07905629 0.93632337 -9.61035156 0.5769043 C-6.36631852 0.1237874 -3.27330962 -0.00824511 0 0 Z " fill="#FAED15" transform="translate(82.375,83.875)"/>
<path d="M0 0 C1 2 1 2 1 11 C10.57 11 20.14 11 30 11 C30 11.33 30 11.66 30 12 C20.43 12 10.86 12 1 12 C1 12.66 1 13.32 1 14 C-2.91386765 14.57328174 -6.82825821 15.14283468 -10.74316406 15.70898438 C-12.72749888 15.99673706 -14.71140887 16.28741437 -16.6953125 16.578125 C-18.57089844 16.84882812 -18.57089844 16.84882812 -20.484375 17.125 C-21.63647461 17.29257813 -22.78857422 17.46015625 -23.97558594 17.6328125 C-27 18 -27 18 -31 18 C-30.67 19.32 -30.34 20.64 -30 22 C-29.472854 21.79141357 -28.94570801 21.58282715 -28.40258789 21.36791992 C-22.35121051 19.14172459 -16.85476554 18.47728672 -10.4375 18.3125 C-9.52419922 18.27833984 -8.61089844 18.24417969 -7.66992188 18.20898438 C-5.44673771 18.12750642 -3.22389803 18.05804262 -1 18 C-0.04949825 20.37038708 0.90041024 22.73953447 1.8125 25.125 C2.92428437 27.2256275 2.92428437 27.2256275 5.5 28.3125 C8 30 8 30 9.5 33.25 C10.11089597 37.8317198 9.26445065 40.01769024 7 44 C6.01 44.66 5.02 45.32 4 46 C3.67 46.99 3.34 47.98 3 49 C3 48.34 3 47.68 3 47 C1.96875 47.04125 0.9375 47.0825 -0.125 47.125 C-3.86829627 47.00424851 -6.53734547 46.35127982 -10 45 C-10 42.36 -10 39.72 -10 37 C-8.68 37 -7.36 37 -6 37 C-5.01 38.98 -4.02 40.96 -3 43 C-1.02 42.505 -1.02 42.505 1 42 C1.04289755 40.06890419 1.04289755 40.06890419 0 38 C-1.11375 37.525625 -2.2275 37.05125 -3.375 36.5625 C-7 35 -7 35 -9 32.875 C-10.43163593 28.75904669 -9.76404772 25.22527595 -9 21 C-17.3124321 21.42741229 -24.9901375 22.74190046 -33 25 C-33 22.03 -33 19.06 -33 16 C-28.92524732 15.42773107 -24.85013039 14.85813848 -20.7746582 14.29101562 C-19.38848787 14.0977398 -18.00241899 13.90373493 -16.61645508 13.70898438 C-14.62347859 13.42906794 -12.63010319 13.15199635 -10.63671875 12.875 C-9.43748779 12.70742187 -8.23825684 12.53984375 -7.00268555 12.3671875 C-4 12 -4 12 -1 12 C-1.33 9.36 -1.66 6.72 -2 4 C-9.41017023 3.88540974 -16.64206267 4.08839714 -24 5 C-24.33 4.34 -24.66 3.68 -25 3 C-21.58399853 2.49538375 -18.1671006 1.99711424 -14.75 1.5 C-13.78191406 1.35691406 -12.81382813 1.21382813 -11.81640625 1.06640625 C-10.41455078 0.86337891 -10.41455078 0.86337891 -8.984375 0.65625 C-8.12553711 0.53056641 -7.26669922 0.40488281 -6.38183594 0.27539062 C-4 0 -4 0 0 0 Z " fill="#D73C38" transform="translate(90,81)"/>
<path d="M0 0 C2.5419589 -0.05434116 5.08273682 -0.0938339 7.625 -0.125 C8.33785156 -0.14175781 9.05070312 -0.15851563 9.78515625 -0.17578125 C14.22244789 -0.21649035 17.89558498 0.09614484 22 2 C24.2138545 5.9849381 25 8.42551768 25 13 C20.99930163 17.0848252 16.43077926 16.64271189 11 17 C11.66 20.63 12.32 24.26 13 28 C9.04 28 5.08 28 1 28 C-0.35700647 25.28598706 -0.1123861 23.15153684 -0.09765625 20.1171875 C-0.09443359 18.95058594 -0.09121094 17.78398438 -0.08789062 16.58203125 C-0.07951172 15.35871094 -0.07113281 14.13539062 -0.0625 12.875 C-0.05798828 11.64394531 -0.05347656 10.41289063 -0.04882812 9.14453125 C-0.0370133 6.09630608 -0.02054028 3.04817686 0 0 Z " fill="#564040" transform="translate(101,100)"/>
<path d="M0 0 C1.79158489 -0.02696365 3.58328473 -0.04637917 5.375 -0.0625 C6.37273437 -0.07410156 7.37046875 -0.08570312 8.3984375 -0.09765625 C11 0 11 0 13 1 C13.4140625 3.72265625 13.4140625 3.72265625 13.625 7.0625 C13.69976562 8.16722656 13.77453125 9.27195312 13.8515625 10.41015625 C13.90054688 11.26480469 13.94953125 12.11945313 14 13 C14.66 13 15.32 13 16 13 C16 12.34 16 11.68 16 11 C17.32 11 18.64 11 20 11 C20 14.3 20 17.6 20 21 C18.68 20.67 17.36 20.34 16 20 C15.67 19.34 15.34 18.68 15 18 C15.020625 19.27875 15.04125 20.5575 15.0625 21.875 C15.125 25.75 15.125 25.75 14 28 C14.721875 27.195625 15.44375 26.39125 16.1875 25.5625 C19.02515689 22.97707928 20.27166147 22.31957187 24 22 C24 24.64 24 27.28 24 30 C6.23367698 32.11683849 6.23367698 32.11683849 2 30 C1.97278169 26.9999376 1.95305622 24.00012744 1.9375 21 C1.92912109 20.16082031 1.92074219 19.32164063 1.91210938 18.45703125 C1.89175967 13.20680661 2.23631793 8.19544338 3 3 C2.34 3 1.68 3 1 3 C0.67 2.01 0.34 1.02 0 0 Z " fill="#995B5E" transform="translate(166,99)"/>
<path d="M0 0 C2.18351455 3.27527182 2.34827465 4.70170774 2.6328125 8.54296875 C2.71660156 9.61611328 2.80039062 10.68925781 2.88671875 11.79492188 C2.96535156 12.91447266 3.04398438 14.03402344 3.125 15.1875 C3.25455078 16.88422852 3.25455078 16.88422852 3.38671875 18.61523438 C3.59895415 21.40966714 3.80305481 24.20445481 4 27 C7.89817126 26.58190668 11.7928517 26.13714061 15.6875 25.6875 C16.79029297 25.56955078 17.89308594 25.45160156 19.02929688 25.33007812 C20.09599609 25.20439453 21.16269531 25.07871094 22.26171875 24.94921875 C23.73064575 24.78425903 23.73064575 24.78425903 25.22924805 24.6159668 C28.29940304 23.93343961 30.34784909 22.64884871 33 21 C35.3125 21.3125 35.3125 21.3125 37 22 C37.22162329 23.62324086 37.42689803 25.248721 37.625 26.875 C37.74101563 27.77992187 37.85703125 28.68484375 37.9765625 29.6171875 C37.98816406 30.79667969 37.98816406 30.79667969 38 32 C37.34 32.66 36.68 33.32 36 34 C33.875 33.625 33.875 33.625 32 33 C32 31.35 32 29.7 32 28 C23.09 28.99 14.18 29.98 5 31 C5.33 35.29 5.66 39.58 6 44 C1 43 1 43 -0.78979492 41.44750977 C-2.51420299 37.96007969 -2.40954685 34.64467685 -2.36328125 30.83984375 C-2.36377975 30.05356094 -2.36427826 29.26727814 -2.36479187 28.45716858 C-2.36245603 26.79881252 -2.35275634 25.14045261 -2.33618164 23.48217773 C-2.31255002 20.94287477 -2.31562896 18.40461967 -2.32226562 15.86523438 C-2.31668979 14.2525979 -2.30958051 12.63996585 -2.30078125 11.02734375 C-2.30169266 10.26791977 -2.30260406 9.50849579 -2.30354309 8.72605896 C-2.25272352 4.95346421 -2.14407104 3.21610655 0 0 Z " fill="#E8E8E8" transform="translate(29,95)"/>
<path d="M0 0 C0.90105469 0.00902344 1.80210937 0.01804687 2.73046875 0.02734375 C3.41753906 0.03894531 4.10460937 0.05054687 4.8125 0.0625 C6.06206484 3.81119452 5.39836719 6.16608192 4.8125 10.0625 C4.72354799 12.62379458 4.68231732 15.18716651 4.6875 17.75 C4.68492187 19.03261719 4.68234375 20.31523438 4.6796875 21.63671875 C4.78467209 24.34470371 4.99654122 26.504534 5.8125 29.0625 C3.85485617 29.25706705 1.89634679 29.44294247 -0.0625 29.625 C-1.69832031 29.78162109 -1.69832031 29.78162109 -3.3671875 29.94140625 C-6.1875 30.0625 -6.1875 30.0625 -8.1875 29.0625 C-7.3125 22.3125 -7.3125 22.3125 -6.1875 20.0625 C-6.25124571 17.39966789 -6.37574724 14.77922365 -6.5625 12.125 C-6.60632813 11.39603516 -6.65015625 10.66707031 -6.6953125 9.91601562 C-6.90269353 6.7736169 -7.18730989 4.06307033 -8.1875 1.0625 C-5.17259443 0.05753148 -3.14568308 -0.04085303 0 0 Z " fill="#DC3337" transform="translate(136.1875,99.9375)"/>
<path d="M0 0 C1.32 0 2.64 0 4 0 C3.98839844 0.845625 3.97679687 1.69125 3.96484375 2.5625 C3.8571177 9.8956563 3.8571177 9.8956563 4.5 17.1875 C5.10729478 21.81812267 5.08597405 26.33829579 5 31 C6.05058594 30.855625 7.10117187 30.71125 8.18359375 30.5625 C15.50218691 29.58494506 22.59883991 28.73567285 30 29 C30.495 27.515 30.495 27.515 31 26 C33.3125 25.375 33.3125 25.375 36 25 C36.99 25.66 37.98 26.32 39 27 C39.328125 29.75 39.328125 29.75 39.25 33 C39.23453125 34.0725 39.2190625 35.145 39.203125 36.25 C39 39 39 39 38 41 C36.00045254 41.04254356 33.99958364 41.04080783 32 41 C31 40 31 40 30.9375 37.4375 C30.958125 36.633125 30.97875 35.82875 31 35 C29.865625 35.2165625 28.73125 35.433125 27.5625 35.65625 C26.0417357 35.93787302 24.52089838 36.21910196 23 36.5 C22.25621094 36.64308594 21.51242188 36.78617188 20.74609375 36.93359375 C15.74779985 37.84632568 11.08079684 38.13856719 6 38 C6.17536109 39.75361092 6.39178079 41.50314237 6.625 43.25 C6.74101563 44.22453125 6.85703125 45.1990625 6.9765625 46.203125 C8.44129424 50.20597969 10.17854694 51.19530473 14 53 C16.9073764 53.33383088 19.65902077 53.11425898 22.5625 52.8125 C23.30435547 52.75513672 24.04621094 52.69777344 24.81054688 52.63867188 C28.61228573 52.32383509 32.2601316 51.75579222 36 51 C37.43628457 50.93733488 38.8750555 50.91313653 40.3125 50.9375 C42.1378125 50.9684375 42.1378125 50.9684375 44 51 C44 51.66 44 52.32 44 53 C40.31349888 53.50755197 36.62566225 54.00467512 32.9375 54.5 C31.89916016 54.64308594 30.86082031 54.78617188 29.79101562 54.93359375 C15.14660294 56.88618211 15.14660294 56.88618211 8.5625 54 C7.69753906 53.62875 6.83257812 53.2575 5.94140625 52.875 C5.30074219 52.58625 4.66007812 52.2975 4 52 C4 51.34 4 50.68 4 50 C4.66 50 5.32 50 6 50 C5.84402344 49.40832031 5.68804687 48.81664062 5.52734375 48.20703125 C5.33269531 47.41683594 5.13804688 46.62664062 4.9375 45.8125 C4.74027344 45.03519531 4.54304688 44.25789063 4.33984375 43.45703125 C3.96083703 40.71685622 4.32295366 38.66557405 5 36 C14.08785235 34.60950893 22.78372955 33.69107473 32 34 C32.495 36.475 32.495 36.475 33 39 C34.98 38.505 34.98 38.505 37 38 C36.67 34.7 36.34 31.4 36 28 C32.27160183 28.7452201 32.27160183 28.7452201 30.234375 29.9921875 C27.0203667 31.44186257 23.71773402 31.73181826 20.25 32.125 C19.57195313 32.21136719 18.89390625 32.29773438 18.1953125 32.38671875 C13.43552392 32.9568075 8.79279099 33.07522318 4 33 C2.79636867 30.59273735 2.71564843 28.7465528 2.5 26.0625 C2.4175 25.08539063 2.335 24.10828125 2.25 23.1015625 C2.08333333 21.03385417 1.91666667 18.96614583 1.75 16.8984375 C1.6675 15.92132813 1.585 14.94421875 1.5 13.9375 C1.4278125 13.03902344 1.355625 12.14054687 1.28125 11.21484375 C1.11946318 8.96311161 1.11946318 8.96311161 0 7 C-0.66 7 -1.32 7 -2 7 C-1.34 4.69 -0.68 2.38 0 0 Z " fill="#3B382E" transform="translate(29,89)"/>
<path d="M0 0 C1.98 0 3.96 0 6 0 C6 8.25 6 16.5 6 25 C8.64 25 11.28 25 14 25 C13.67 25.99 13.34 26.98 13 28 C10.10628488 29.38476067 7.19551677 29.90254443 4 30 C1.22447914 29.00766314 -0.57807504 27.75203082 -3 26 C-3 25.34 -3 24.68 -3 24 C-3.66 24 -4.32 24 -5 24 C-7.70896568 12.28893299 -7.70896568 12.28893299 -5 7 C-3.5 4.625 -3.5 4.625 -2 3 C-1.34 3 -0.68 3 0 3 C0 2.01 0 1.02 0 0 Z " fill="#DF3437" transform="translate(149,100)"/>
<path d="M0 0 C1 2 1 2 1 11 C10.57 11 20.14 11 30 11 C30 11.33 30 11.66 30 12 C20.43 12 10.86 12 1 12 C1 12.66 1 13.32 1 14 C-2.91386765 14.57328174 -6.82825821 15.14283468 -10.74316406 15.70898438 C-12.72749888 15.99673706 -14.71140887 16.28741437 -16.6953125 16.578125 C-18.57089844 16.84882812 -18.57089844 16.84882812 -20.484375 17.125 C-21.63647461 17.29257813 -22.78857422 17.46015625 -23.97558594 17.6328125 C-27 18 -27 18 -31 18 C-30.67 19.32 -30.34 20.64 -30 22 C-29.472854 21.79141357 -28.94570801 21.58282715 -28.40258789 21.36791992 C-22.35121051 19.14172459 -16.85476554 18.47728672 -10.4375 18.3125 C-9.52419922 18.27833984 -8.61089844 18.24417969 -7.66992188 18.20898438 C-5.44673771 18.12750642 -3.22389803 18.05804262 -1 18 C0.33333333 21.33333333 1.66666667 24.66666667 3 28 C1.68 27.34 0.36 26.68 -1 26 C-1 25.34 -1 24.68 -1 24 C-1.66 23.34 -2.32 22.68 -3 22 C-2.67 21.01 -2.34 20.02 -2 19 C-4.17728073 19.87644433 -4.17728073 19.87644433 -6 22 C-6.7846358 26.81729886 -6.42505914 30.74159615 -4 35 C-4.99 35 -5.98 35 -7 35 C-9.14712628 32.62282448 -10.01344221 30.89315989 -9.96484375 27.6640625 C-9.71401709 25.42428638 -9.40098398 23.21748971 -9 21 C-17.3124321 21.42741229 -24.9901375 22.74190046 -33 25 C-33 22.03 -33 19.06 -33 16 C-28.92524732 15.42773107 -24.85013039 14.85813848 -20.7746582 14.29101562 C-19.38848787 14.0977398 -18.00241899 13.90373493 -16.61645508 13.70898438 C-14.62347859 13.42906794 -12.63010319 13.15199635 -10.63671875 12.875 C-9.43748779 12.70742187 -8.23825684 12.53984375 -7.00268555 12.3671875 C-4 12 -4 12 -1 12 C-1.33 9.36 -1.66 6.72 -2 4 C-9.41017023 3.88540974 -16.64206267 4.08839714 -24 5 C-24.33 4.34 -24.66 3.68 -25 3 C-21.58399853 2.49538375 -18.1671006 1.99711424 -14.75 1.5 C-13.78191406 1.35691406 -12.81382813 1.21382813 -11.81640625 1.06640625 C-10.41455078 0.86337891 -10.41455078 0.86337891 -8.984375 0.65625 C-8.12553711 0.53056641 -7.26669922 0.40488281 -6.38183594 0.27539062 C-4 0 -4 0 0 0 Z " fill="#494735" transform="translate(90,81)"/>
<path d="M0 0 C0.66 0 1.32 0 2 0 C2.02312484 9.50074325 2.0409158 19.00147688 2.05181217 28.50224209 C2.05704069 32.91337004 2.06413777 37.3244788 2.07543945 41.7355957 C2.08626944 45.98901115 2.09227707 50.24240809 2.09487724 54.49583626 C2.09673129 56.12221633 2.10035152 57.74859534 2.10573006 59.37496758 C2.11294198 61.64510193 2.11399088 63.91515885 2.11352539 66.18530273 C2.115746 67.47991928 2.11796661 68.77453583 2.12025452 70.10838318 C2 73 2 73 1 74 C-1.05556661 74.09413687 -3.11440181 74.11742998 -5.17211914 74.11352539 C-6.13794167 74.11374443 -6.13794167 74.11374443 -7.12327576 74.1139679 C-9.26060303 74.11326885 -11.39784413 74.10547691 -13.53515625 74.09765625 C-15.01346285 74.09579204 -16.49177007 74.09436815 -17.97007751 74.09336853 C-21.86798802 74.08954359 -25.76586149 74.07971352 -29.66375732 74.06866455 C-33.63846333 74.05844992 -37.61317529 74.0538708 -41.58789062 74.04882812 C-49.391944 74.03809122 -57.19596682 74.02101509 -65 74 C-65 73.34 -65 72.68 -65 72 C-43.55 72 -22.1 72 0 72 C0 48.24 0 24.48 0 0 Z " fill="#858585" transform="translate(218,145)"/>
<path d="M0 0 C2.31 0 4.62 0 7 0 C8.33257403 12.66970387 8.33257403 12.66970387 7 18 C6.34 18 5.68 18 5 18 C5.33 20.97 5.66 23.94 6 27 C4.35 27.33 2.7 27.66 1 28 C-0.0592918 24.82212459 -0.11458939 22.57411057 -0.09765625 19.23828125 C-0.09443359 18.12001953 -0.09121094 17.00175781 -0.08789062 15.84960938 C-0.07951172 14.68236328 -0.07113281 13.51511719 -0.0625 12.3125 C-0.05573242 10.54422852 -0.05573242 10.54422852 -0.04882812 8.74023438 C-0.03703273 5.82677211 -0.0205727 2.91341137 0 0 Z " fill="#EA3338" transform="translate(171,101)"/>
<path d="M0 0 C2.64 0 5.28 0 8 0 C8 8.58 8 17.16 8 26 C5.03 26 2.06 26 -1 26 C-0.505 24.515 -0.505 24.515 0 23 C0.08209792 21.22686149 0.10746294 19.45079225 0.09765625 17.67578125 C0.09443359 16.64775391 0.09121094 15.61972656 0.08789062 14.56054688 C0.07951172 13.48869141 0.07113281 12.41683594 0.0625 11.3125 C0.05798828 10.22904297 0.05347656 9.14558594 0.04882812 8.02929688 C0.03703743 5.35280915 0.02058063 2.67643223 0 0 Z " fill="#E93337" transform="translate(104,101)"/>
<path d="M0 0 C1.98 0 3.96 0 6 0 C5.67 0.66 5.34 1.32 5 2 C4.01 1.67 3.02 1.34 2 1 C2 1.99 2 2.98 2 4 C1.360625 4.53625 0.72125 5.0725 0.0625 5.625 C-2.96325954 9.10920796 -3.07072441 12.48149578 -3 17 C-2.05841643 21.53672086 -0.54865484 24.02370884 3 27 C3.33 27 3.66 27 4 27 C4 19.08 4 11.16 4 3 C4.33 3 4.66 3 5 3 C5.33 10.26 5.66 17.52 6 25 C8.64 25 11.28 25 14 25 C13.67 25.99 13.34 26.98 13 28 C10.10628488 29.38476067 7.19551677 29.90254443 4 30 C1.22447914 29.00766314 -0.57807504 27.75203082 -3 26 C-3 25.34 -3 24.68 -3 24 C-3.66 24 -4.32 24 -5 24 C-7.70896568 12.28893299 -7.70896568 12.28893299 -5 7 C-3.5 4.625 -3.5 4.625 -2 3 C-1.34 3 -0.68 3 0 3 C0 2.01 0 1.02 0 0 Z " fill="#605050" transform="translate(149,100)"/>
<path d="M0 0 C0.90105469 0.00902344 1.80210937 0.01804687 2.73046875 0.02734375 C3.41753906 0.03894531 4.10460937 0.05054687 4.8125 0.0625 C6.043894 3.75668201 5.45682764 6.2681261 4.8125 10.0625 C3.38305055 7.70811267 2.72588739 6.58217567 3.1875 3.8125 C3.39375 3.235 3.6 2.6575 3.8125 2.0625 C1.1725 2.3925 -1.4675 2.7225 -4.1875 3.0625 C-4.02507812 3.743125 -3.86265625 4.42375 -3.6953125 5.125 C-3.11441477 8.48526997 -3.05515194 11.65300215 -3.0625 15.0625 C-3.05992187 16.25875 -3.05734375 17.455 -3.0546875 18.6875 C-3.16992062 21.61577693 -3.50926437 24.22036976 -4.1875 27.0625 C-1.5475 27.3925 1.0925 27.7225 3.8125 28.0625 C4.1425 27.0725 4.4725 26.0825 4.8125 25.0625 C5.1425 26.3825 5.4725 27.7025 5.8125 29.0625 C3.85485617 29.25706705 1.89634679 29.44294247 -0.0625 29.625 C-1.69832031 29.78162109 -1.69832031 29.78162109 -3.3671875 29.94140625 C-6.1875 30.0625 -6.1875 30.0625 -8.1875 29.0625 C-7.3125 22.3125 -7.3125 22.3125 -6.1875 20.0625 C-6.25124571 17.39966789 -6.37574724 14.77922365 -6.5625 12.125 C-6.60632813 11.39603516 -6.65015625 10.66707031 -6.6953125 9.91601562 C-6.90269353 6.7736169 -7.18730989 4.06307033 -8.1875 1.0625 C-5.17259443 0.05753148 -3.14568308 -0.04085303 0 0 Z " fill="#423232" transform="translate(136.1875,99.9375)"/>
<path d="M0 0 C1 2 1 2 1 11 C10.57 11 20.14 11 30 11 C30 11.33 30 11.66 30 12 C20.43 12 10.86 12 1 12 C1 12.66 1 13.32 1 14 C-4.02125926 14.77916092 -7.97703996 15.13016601 -13 14 C-13 13.67 -13 13.34 -13 13 C-7.06 12.505 -7.06 12.505 -1 12 C-1.33 9.36 -1.66 6.72 -2 4 C-9.41017023 3.88540974 -16.64206267 4.08839714 -24 5 C-24.33 4.34 -24.66 3.68 -25 3 C-21.58399853 2.49538375 -18.1671006 1.99711424 -14.75 1.5 C-13.78191406 1.35691406 -12.81382813 1.21382813 -11.81640625 1.06640625 C-10.41455078 0.86337891 -10.41455078 0.86337891 -8.984375 0.65625 C-8.12553711 0.53056641 -7.26669922 0.40488281 -6.38183594 0.27539062 C-4 0 -4 0 0 0 Z " fill="#4E4C3D" transform="translate(90,81)"/>
<path d="M0 0 C0.33 0.99 0.66 1.98 1 3 C1.33 2.01 1.66 1.02 2 0 C4.64 0 7.28 0 10 0 C10 2.64 10 5.28 10 8 C9.01 8 8.02 8 7 8 C7 8.66 7 9.32 7 10 C5.68 10 4.36 10 3 10 C3 10.66 3 11.32 3 12 C2.34 12 1.68 12 1 12 C0.03929566 9.11788698 -0.10581883 7.30149956 -0.0625 4.3125 C-0.05347656 3.50425781 -0.04445312 2.69601563 -0.03515625 1.86328125 C-0.02355469 1.24839844 -0.01195312 0.63351563 0 0 Z " fill="#E9E9E9" transform="translate(179,100)"/>
<path d="M0 0 C6.70909091 1.11818182 6.70909091 1.11818182 9 3 C9.66263618 5.70024244 9.81962054 8.20411839 10 11 C6.62902617 12.49821059 4.79557881 13 1 13 C1.020625 11.783125 1.04125 10.56625 1.0625 9.3125 C1.06824116 6.08022678 0.78766315 3.15065259 0 0 Z " fill="#CF373A" transform="translate(116,102)"/>
<path d="M0 0 C1.79158489 -0.02696365 3.58328473 -0.04637917 5.375 -0.0625 C6.37273437 -0.07410156 7.37046875 -0.08570312 8.3984375 -0.09765625 C11 0 11 0 13 1 C13 4.96 13 8.92 13 13 C12.67 13 12.34 13 12 13 C12 9.37 12 5.74 12 2 C9.69 2 7.38 2 5 2 C5 11.24 5 20.48 5 30 C4.01 30 3.02 30 2 30 C1.97278169 26.9999376 1.95305622 24.00012744 1.9375 21 C1.92912109 20.16082031 1.92074219 19.32164063 1.91210938 18.45703125 C1.89175967 13.20680661 2.23631793 8.19544338 3 3 C2.34 3 1.68 3 1 3 C0.67 2.01 0.34 1.02 0 0 Z " fill="#482C2E" transform="translate(166,99)"/>
<path d="M0 0 C0.20625 0.5775 0.4125 1.155 0.625 1.75 C2.60184831 4.9848427 4.65859936 6.21009909 8 8 C10.90477912 8.3533605 13.65998866 8.11415838 16.5625 7.8125 C17.30435547 7.75513672 18.04621094 7.69777344 18.81054688 7.63867188 C22.61228573 7.32383509 26.2601316 6.75579222 30 6 C31.43628457 5.93733488 32.8750555 5.91313653 34.3125 5.9375 C36.1378125 5.9684375 36.1378125 5.9684375 38 6 C38 6.66 38 7.32 38 8 C34.31349888 8.50755197 30.62566225 9.00467512 26.9375 9.5 C25.89916016 9.64308594 24.86082031 9.78617188 23.79101562 9.93359375 C9.14660294 11.88618211 9.14660294 11.88618211 2.5625 9 C1.69753906 8.62875 0.83257812 8.2575 -0.05859375 7.875 C-1.01958984 7.441875 -1.01958984 7.441875 -2 7 C-2 6.34 -2 5.68 -2 5 C-1.34 5 -0.68 5 0 5 C0 3.35 0 1.7 0 0 Z " fill="#302D2D" transform="translate(35,134)"/>
<path d="M0 0 C2.31 0.66 4.62 1.32 7 2 C7.33 3.98 7.66 5.96 8 8 C7.01 8.33 6.02 8.66 5 9 C5 9.66 5 10.32 5 11 C3.35425434 11.02688151 1.70838587 11.04634123 0.0625 11.0625 C-0.85402344 11.07410156 -1.77054687 11.08570312 -2.71484375 11.09765625 C-5 11 -5 11 -6 10 C-6.14115161 7.32941149 -6.04247107 4.67567762 -6 2 C-4.68 2 -3.36 2 -2 2 C-1.01 3.98 -0.02 5.96 1 8 C2.32 7.67 3.64 7.34 5 7 C4.80528889 5.05000871 4.80528889 5.05000871 4 3 C2.0162233 1.71563266 2.0162233 1.71563266 0 1 C0 0.67 0 0.34 0 0 Z " fill="#46352E" transform="translate(86,116)"/>
<path d="M0 0 C5.73842251 -0.20413361 10.60539047 -0.27141454 16 2 C16 2.66 16 3.32 16 4 C13.03 3.505 13.03 3.505 10 3 C10.185625 3.86625 10.37125 4.7325 10.5625 5.625 C11.00667933 9.05152628 10.71954492 11.64212371 10 15 C11.98 14.67 13.96 14.34 16 14 C15.67 14.66 15.34 15.32 15 16 C12.35139573 16.59355614 9.70802678 16.74209269 7 17 C7 14.89542083 7.0456384 12.79058231 7.125 10.6875 C7.00131971 7.03893142 6.31893981 4.37978326 5 1 C3.02 1.33 1.04 1.66 -1 2 C-0.67 1.34 -0.34 0.68 0 0 Z " fill="#503839" transform="translate(107,100)"/>
<path d="M0 0 C1.33333333 3.33333333 2.66666667 6.66666667 4 10 C2.68 9.34 1.36 8.68 0 8 C0 7.34 0 6.68 0 6 C-0.66 5.34 -1.32 4.68 -2 4 C-1.67 3.01 -1.34 2.02 -1 1 C-3.17728073 1.87644433 -3.17728073 1.87644433 -5 4 C-5.7846358 8.81729886 -5.42505914 12.74159615 -3 17 C-3.99 17 -4.98 17 -6 17 C-7.9879169 14.72809497 -9 13.02362273 -9 9.95703125 C-8.66948454 7.12182831 -8.28418709 4.56837419 -7 2 C-9.97 2 -12.94 2 -16 2 C-16 1.67 -16 1.34 -16 1 C-14.27111445 0.83044205 -12.54187557 0.66448486 -10.8125 0.5 C-9.84957031 0.4071875 -8.88664062 0.314375 -7.89453125 0.21875 C-5.24812333 0.01875156 -2.65239135 -0.03879183 0 0 Z " fill="#3D312D" transform="translate(89,99)"/>
<path d="M0 0 C1.98 0 3.96 0 6 0 C5.67 0.66 5.34 1.32 5 2 C4.01 1.67 3.02 1.34 2 1 C2 1.99 2 2.98 2 4 C1.360625 4.53625 0.72125 5.0725 0.0625 5.625 C-3.74600338 10.01054935 -3.18091219 16.391722 -3 22 C-3.99 21.67 -4.98 21.34 -6 21 C-7.11581921 14.52824858 -7.12845973 10.37006123 -3.5 4.625 C-3.005 4.08875 -2.51 3.5525 -2 3 C-1.34 3 -0.68 3 0 3 C0 2.01 0 1.02 0 0 Z " fill="#4E4345" transform="translate(149,100)"/>
<path d="M0 0 C0 0.33 0 0.66 0 1 C2.97 1.33 5.94 1.66 9 2 C9 2.33 9 2.66 9 3 C8.03320312 3.03738281 7.06640625 3.07476562 6.0703125 3.11328125 C-1.71217329 3.50625826 -8.6303368 4.24287894 -16 7 C-16 5.35 -16 3.7 -16 2 C-14.27192682 1.66104344 -12.54248026 1.32908475 -10.8125 1 C-9.84957031 0.814375 -8.88664062 0.62875 -7.89453125 0.4375 C-5.2065794 0.03122388 -2.71228981 -0.07933572 0 0 Z " fill="#EEEEEE" transform="translate(75,97)"/>
<path d="M0 0 C0.33 0.66 0.66 1.32 1 2 C-5.74153283 3.25841946 -12.13484138 4.26404456 -19 4 C-18.690625 5.6396875 -18.690625 5.6396875 -18.375 7.3125 C-18 11 -18 11 -20 14 C-20.19401633 12.18818595 -20.38004375 10.37551468 -20.5625 8.5625 C-20.66691406 7.55316406 -20.77132812 6.54382813 -20.87890625 5.50390625 C-20.91886719 4.67761719 -20.95882812 3.85132812 -21 3 C-19.0269375 1.0269375 -15.45450809 1.2812934 -12.75 0.9375 C-12.08097656 0.84662109 -11.41195312 0.75574219 -10.72265625 0.66210938 C-7.1250388 0.19208666 -3.62792471 -0.10546293 0 0 Z " fill="#535044" transform="translate(54,123)"/>
<path d="M0 0 C2.64 0 5.28 0 8 0 C8 3.63 8 7.26 8 11 C2.98546093 8.49273047 2.4394358 6.87887159 0 2 C0 1.34 0 0.68 0 0 Z " fill="#352C2D" transform="translate(157,100)"/>
<path d="M0 0 C0.90105469 0.00902344 1.80210937 0.01804687 2.73046875 0.02734375 C3.41753906 0.03894531 4.10460937 0.05054687 4.8125 0.0625 C6.043894 3.75668201 5.45682764 6.2681261 4.8125 10.0625 C3.38305055 7.70811267 2.72588739 6.58217567 3.1875 3.8125 C3.39375 3.235 3.6 2.6575 3.8125 2.0625 C1.1725 2.3925 -1.4675 2.7225 -4.1875 3.0625 C-3.878125 4.17625 -3.878125 4.17625 -3.5625 5.3125 C-3.1875 8.0625 -3.1875 8.0625 -5.1875 12.0625 C-6.1775 8.4325 -7.1675 4.8025 -8.1875 1.0625 C-5.17259443 0.05753148 -3.14568308 -0.04085303 0 0 Z " fill="#573B3E" transform="translate(136.1875,99.9375)"/>
<path d="M0 0 C1.32 0 2.64 0 4 0 C4 2.64 4 5.28 4 8 C-0.455 8.495 -0.455 8.495 -5 9 C-3.95791427 4.83165708 -2.95322463 3.03760248 0 0 Z " fill="#452F30" transform="translate(186,121)"/>
<path d="M0 0 C2.6490324 0.90823968 4.83352731 2.246073 7.1875 3.75 C6.8575 5.07 6.5275 6.39 6.1875 7.75 C4.8675 8.08 3.5475 8.41 2.1875 8.75 C-0.8125 5.125 -0.8125 5.125 -0.8125 1.75 C-1.8025 1.42 -2.7925 1.09 -3.8125 0.75 C-1.8125 -0.25 -1.8125 -0.25 0 0 Z " fill="#EEE41E" transform="translate(84.8125,116.25)"/>
<path d="M0 0 C0.33 0.66 0.66 1.32 1 2 C-8.24 2.99 -17.48 3.98 -27 5 C-27.33 4.34 -27.66 3.68 -28 3 C-24.83486722 2.48996146 -21.66769716 1.99384043 -18.5 1.5 C-17.613125 1.35691406 -16.72625 1.21382813 -15.8125 1.06640625 C-10.46923901 0.24134389 -5.40603486 -0.15157107 0 0 Z " fill="#37362E" transform="translate(62,85)"/>
<path d="M0 0 C1 1 1 1 1.09765625 3.06640625 C1.08605469 3.89011719 1.07445313 4.71382813 1.0625 5.5625 C1.05347656 6.38878906 1.04445313 7.21507813 1.03515625 8.06640625 C1.02355469 8.70449219 1.01195313 9.34257813 1 10 C-0.921875 9.6171875 -0.921875 9.6171875 -3 9 C-4.72101535 6.41847698 -5 5.15081975 -5 2 C-5.99 1.67 -6.98 1.34 -8 1 C-5.26752652 -0.36623674 -3.01801098 -0.128426 0 0 Z " fill="#6A4042" transform="translate(98,99)"/>
<path d="M0 0 C0.99 0 1.98 0 3 0 C3.32589516 4.67116396 2.84137634 7.24532412 0 11 C-1.30144802 12.04115841 -2.62797869 13.05377841 -4 14 C-4 14.33 -4 14.66 -4 15 C-7.3 15 -10.6 15 -14 15 C-14.33 14.34 -14.66 13.68 -15 13 C-14.40832031 12.89042969 -13.81664063 12.78085938 -13.20703125 12.66796875 C-6.63630232 11.41112387 -6.63630232 11.41112387 -1 8 C0.26663511 5.70262134 1.10891411 3.48566064 2 1 C1.34 0.67 0.68 0.34 0 0 Z " fill="#3C392D" transform="translate(92,126)"/>
<path d="M0 0 C1.32 0 2.64 0 4 0 C4 3.3 4 6.6 4 10 C2.68 9.67 1.36 9.34 0 9 C-1.125 2.25 -1.125 2.25 0 0 Z " fill="#643D3F" transform="translate(182,110)"/>
<path d="M0 0 C0.99 1.32 1.98 2.64 3 4 C6.60465748 4.81314911 6.60465748 4.81314911 10 5 C9.4225 5.226875 8.845 5.45375 8.25 5.6875 C5.44661024 7.32281069 3.99557846 9.47226728 2 12 C1.34 12 0.68 12 0 12 C0 8.04 0 4.08 0 0 Z " fill="#F0F1F1" transform="translate(180,115)"/>
<path d="M0 0 C1.50433594 0.01353516 1.50433594 0.01353516 3.0390625 0.02734375 C3.80992188 0.03894531 4.58078125 0.05054687 5.375 0.0625 C5.375 0.7225 5.375 1.3825 5.375 2.0625 C3.7926994 2.40070166 2.20910625 2.73285939 0.625 3.0625 C-0.69757812 3.3409375 -0.69757812 3.3409375 -2.046875 3.625 C-4.625 4.0625 -4.625 4.0625 -8.625 4.0625 C-8.295 3.0725 -7.965 2.0825 -7.625 1.0625 C-4.98041621 -0.25979189 -2.94738699 -0.03427194 0 0 Z " fill="#F0F0EF" transform="translate(46.625,120.9375)"/>
<path d="M0 0 C2.64 0 5.28 0 8 0 C8 2.64 8 5.28 8 8 C6.68 7.34 5.36 6.68 4 6 C4 5.01 4 4.02 4 3 C2.68 2.67 1.36 2.34 0 2 C0 1.34 0 0.68 0 0 Z " fill="#6C3233" transform="translate(181,100)"/>
<path d="M0 0 C0.66 0 1.32 0 2 0 C2 0.66 2 1.32 2 2 C2.66 2 3.32 2 4 2 C4 4.64 4 7.28 4 10 C2.68 10 1.36 10 0 10 C0 6.7 0 3.4 0 0 Z " fill="#E3E3E3" transform="translate(165,100)"/>
<path d="M0 0 C2.31 0.66 4.62 1.32 7 2 C7.33 3.98 7.66 5.96 8 8 C7.01 8.33 6.02 8.66 5 9 C5 9.66 5 10.32 5 11 C3.35 11 1.7 11 0 11 C1.25541557 8.48916886 2.50063488 8.12874554 5 7 C4.80528889 5.05000871 4.80528889 5.05000871 4 3 C2.0162233 1.71563266 2.0162233 1.71563266 0 1 C0 0.67 0 0.34 0 0 Z " fill="#45362C" transform="translate(86,116)"/>
<path d="M0 0 C2.64 0 5.28 0 8 0 C7.67 0.66 7.34 1.32 7 2 C5.35 2 3.7 2 2 2 C2 8.6 2 15.2 2 22 C1.67 22 1.34 22 1 22 C0.67 14.74 0.34 7.48 0 0 Z " fill="#DA373C" transform="translate(104,101)"/>
<path d="M0 0 C0.66 0 1.32 0 2 0 C1.67 2.64 1.34 5.28 1 8 C2.98 7.67 4.96 7.34 7 7 C6.67 7.66 6.34 8.32 6 9 C3.35139573 9.59355614 0.70802678 9.74209269 -2 10 C-2 6.38970831 -1.03907418 3.44193324 0 0 Z " fill="#462D30" transform="translate(116,107)"/>
<path d="M0 0 C3 1 3 1 4.6875 3.9375 C6 7 6 7 6 9 C6.66 9.33 7.32 9.66 8 10 C7.01 10.495 7.01 10.495 6 11 C2.78097174 8.85398116 1.70544246 7.41088492 0 4 C0 2.68 0 1.36 0 0 Z " fill="#DCDDDD" transform="translate(89,99)"/>
<path d="M0 0 C1.98 0.66 3.96 1.32 6 2 C6 3.65 6 5.3 6 7 C4.35 7 2.7 7 1 7 C0.34 5.02 -0.32 3.04 -1 1 C-0.67 0.67 -0.34 0.34 0 0 Z " fill="#2B2B2B" transform="translate(191,81)"/>
<path d="M0 0 C0.66 0.33 1.32 0.66 2 1 C1.67 2.65 1.34 4.3 1 6 C0.34 4.68 -0.32 3.36 -1 2 C-1.556875 2.144375 -2.11375 2.28875 -2.6875 2.4375 C-5.11384195 3.02769128 -7.54906345 3.523429 -10 4 C-9.01 3.67 -8.02 3.34 -7 3 C-6.67 2.01 -6.34 1.02 -6 0 C-3.4832097 -1.25839515 -2.62168527 -0.81927665 0 0 Z " fill="#3F3C30" transform="translate(66,115)"/>
<path d="M0 0 C0.33 0 0.66 0 1 0 C1.98248524 4.0527516 2.08159574 7.83861737 2 12 C1.01 12.495 1.01 12.495 0 13 C-1.33106125 9.00681626 -1.13647721 5.16255487 -1 1 C-0.67 0.67 -0.34 0.34 0 0 Z " fill="#DDDDDD" transform="translate(113,102)"/>
<path d="M0 0 C0.763125 0.061875 1.52625 0.12375 2.3125 0.1875 C2.3125 0.5175 2.3125 0.8475 2.3125 1.1875 C5.2825 1.5175 8.2525 1.8475 11.3125 2.1875 C11.3125 2.5175 11.3125 2.8475 11.3125 3.1875 C5.7025 3.1875 0.0925 3.1875 -5.6875 3.1875 C-2.6875 0.1875 -2.6875 0.1875 0 0 Z " fill="#DDDDDD" transform="translate(72.6875,96.8125)"/>
<path d="M0 0 C3.3 0 6.6 0 10 0 C11.231394 3.69418201 10.64432764 6.2056261 10 10 C8.9375 8.25 8.9375 8.25 8 6 C8.33 4.68 8.66 3.36 9 2 C6.03 1.67 3.06 1.34 0 1 C0 0.67 0 0.34 0 0 Z " fill="#806768" transform="translate(131,100)"/>
<path d="M0 0 C1.98 0 3.96 0 6 0 C5.01 0.33 4.02 0.66 3 1 C3.226875 1.9075 3.45375 2.815 3.6875 3.75 C4 7 4 7 1 11 C0.67 7.37 0.34 3.74 0 0 Z " fill="#564A4C" transform="translate(101,100)"/>
<path d="M0 0 C0.66 0 1.32 0 2 0 C2.82638376 2.89234315 3 4.88742431 3 8 C1.68 6.68 0.36 5.36 -1 4 C-1.66 4.99 -2.32 5.98 -3 7 C-2.25 2.25 -2.25 2.25 0 0 Z " fill="#B25134" transform="translate(86,100)"/>
<path d="M0 0 C3.84800954 0.54971565 5.35309439 2.27037858 8 5 C10.13309192 6.23512079 10.13309192 6.23512079 12 7 C9 8 9 8 7.17578125 7.22265625 C5.45052083 6.1484375 3.72526042 5.07421875 2 4 C2 3.34 2 2.68 2 2 C1.34 2 0.68 2 0 2 C0 1.34 0 0.68 0 0 Z " fill="#554847" transform="translate(144,122)"/>
<path d="M0 0 C0.33 0 0.66 0 1 0 C1.33 3.3 1.66 6.6 2 10 C1.01 9.67 0.02 9.34 -1 9 C-1.125 2.25 -1.125 2.25 0 0 Z " fill="#3D3233" transform="translate(144,112)"/>
<path d="M0 0 C1.5625 1.8125 1.5625 1.8125 3 4 C2.67 4.99 2.34 5.98 2 7 C0.68 7 -0.64 7 -2 7 C-1.125 1.125 -1.125 1.125 0 0 Z " fill="#EE3336" transform="translate(85,103)"/>
<path d="M0 0 C1.43088528 2.86177057 0.59991697 4.93375773 0 8 C-3.01327566 6.49336217 -3.61056618 3.96833589 -5 1 C-3.35 0.67 -1.7 0.34 0 0 Z " fill="#B7383B" transform="translate(164,100)"/>
<path d="M0 0 C0.33 0 0.66 0 1 0 C1 1.98 1 3.96 1 6 C-0.98 6.33 -2.96 6.66 -5 7 C-5 6.34 -5 5.68 -5 5 C-4.34 5 -3.68 5 -3 5 C-2.67 4.01 -2.34 3.02 -2 2 C-1.34 2 -0.68 2 0 2 C0 1.34 0 0.68 0 0 Z " fill="#C9353B" transform="translate(188,122)"/>
<path d="M0 0 C0.99 0.33 1.98 0.66 3 1 C5.367713 6.97565663 5.367713 6.97565663 4.125 10.4375 C3.75375 10.953125 3.3825 11.46875 3 12 C2.814375 10.4221875 2.814375 10.4221875 2.625 8.8125 C2.08859218 5.54041229 1.36119965 2.99463924 0 0 Z " fill="#7B4144" transform="translate(95,110)"/>
<path d="M0 0 C3 4 3 4 2.85546875 6.359375 C2.63503906 7.14828125 2.41460937 7.9371875 2.1875 8.75 C1.97480469 9.54921875 1.76210937 10.3484375 1.54296875 11.171875 C1.36378906 11.77515625 1.18460938 12.3784375 1 13 C0.67 13 0.34 13 0 13 C0 8.71 0 4.42 0 0 Z " fill="#BEBDBE" transform="translate(140,110)"/>
<path d="M0 0 C0.33 0 0.66 0 1 0 C1 2.97 1 5.94 1 9 C-0.32 8.34 -1.64 7.68 -3 7 C-3 6.01 -3 5.02 -3 4 C-2.34 4.33 -1.68 4.66 -1 5 C-0.67 3.35 -0.34 1.7 0 0 Z " fill="#463233" transform="translate(164,102)"/>
<path d="M0 0 C1.98 0 3.96 0 6 0 C5.67 0.66 5.34 1.32 5 2 C4.01 1.67 3.02 1.34 2 1 C2 1.99 2 2.98 2 4 C0.02 4.99 0.02 4.99 -2 6 C-2 5.01 -2 4.02 -2 3 C-1.34 3 -0.68 3 0 3 C0 2.01 0 1.02 0 0 Z " fill="#43292A" transform="translate(149,100)"/>
<path d="M0 0 C2.05078125 0.03255208 4.1015625 0.06510417 6.15234375 0.09765625 C6.15234375 0.75765625 6.15234375 1.41765625 6.15234375 2.09765625 C2.77734375 2.72265625 2.77734375 2.72265625 -0.84765625 3.09765625 C-1.50765625 2.43765625 -2.16765625 1.77765625 -2.84765625 1.09765625 C-1.84765625 0.09765625 -1.84765625 0.09765625 0 0 Z " fill="#51502E" transform="translate(66.84765625,139.90234375)"/>
<path d="M0 0 C0.66 0 1.32 0 2 0 C2 0.66 2 1.32 2 2 C2.99 2 3.98 2 5 2 C4.67 2.99 4.34 3.98 4 5 C2.68 4.67 1.36 4.34 0 4 C0 2.68 0 1.36 0 0 Z " fill="#9F3C35" transform="translate(82,122)"/>
<path d="M0 0 C1.32 0 2.64 0 4 0 C4 2.64 4 5.28 4 8 C3.67 8 3.34 8 3 8 C2.67 6.35 2.34 4.7 2 3 C1.01 3 0.02 3 -1 3 C-0.67 2.01 -0.34 1.02 0 0 Z " fill="#585251" transform="translate(186,121)"/>
</svg>
